<svg width="40" height="40" viewBox="0 0 40 40" fill="none" xmlns="http://www.w3.org/2000/svg">
<g clip-path="url(#clip0_260_5853)">
<path d="M36.4063 8.15094e-05C36.86 0.249186 37.2021 0.617036 37.5648 0.981527C37.6296 1.04624 37.6945 1.11095 37.7613 1.17762C37.8978 1.31401 38.0341 1.4506 38.1702 1.58738C38.3788 1.79678 38.5882 2.00534 38.7977 2.21383C38.9304 2.34663 39.063 2.47948 39.1956 2.61239C39.2583 2.67473 39.321 2.73708 39.3855 2.80131C39.4434 2.85971 39.5013 2.91812 39.561 2.97829C39.6375 3.05495 39.6375 3.05495 39.7155 3.13315C40.0007 3.46248 40.0523 3.75705 40.0427 4.18495C39.947 4.78767 39.6514 5.33354 39.3916 5.88051C39.3595 5.94891 39.3275 6.0173 39.2944 6.08776C39.0502 6.60848 38.7986 7.12546 38.545 7.64168C38.4897 7.75499 38.4897 7.75499 38.4333 7.87059C37.2235 10.3466 35.5058 13.5363 32.8907 14.8438C32.7664 14.8368 32.6423 14.8245 32.5187 14.8097C31.7102 14.6886 31.7102 14.6886 30.9586 14.8975C30.8279 15.0813 30.7294 15.2692 30.6251 15.4688C30.4618 15.6376 30.4618 15.6376 30.2882 15.7862C30.2113 15.8528 30.2113 15.8528 30.1328 15.9208C30.0001 16.0157 30.0001 16.0157 29.8438 16.0157C29.8451 16.0681 29.8463 16.1205 29.8475 16.1745C29.8524 16.4129 29.8555 16.6513 29.8585 16.8897C29.8614 17.0134 29.8614 17.0134 29.8644 17.1395C29.8652 17.2193 29.8659 17.2991 29.8667 17.3814C29.8679 17.4546 29.8692 17.5278 29.8704 17.6033C29.8204 17.9966 29.5875 18.2448 29.3131 18.5148C29.2575 18.5699 29.2018 18.6251 29.1445 18.6819C29.058 18.7664 29.058 18.7664 28.9698 18.8526C28.9112 18.9105 28.8527 18.9683 28.7923 19.0279C28.6484 19.1701 28.5041 19.3118 28.3595 19.4532C28.4712 19.8213 28.6247 20.1552 28.8017 20.4954C28.8578 20.6053 28.9139 20.7152 28.97 20.8251C29.0578 20.9964 29.1458 21.1675 29.2343 21.3383C29.3203 21.5046 29.4053 21.6713 29.4901 21.8382C29.5166 21.8885 29.543 21.9389 29.5703 21.9909C29.7353 22.3173 29.8337 22.6019 29.8438 22.9688C29.7656 23.1866 29.7656 23.1866 29.6095 23.3595C29.3645 23.4653 29.3645 23.4653 29.0644 23.5471C28.9544 23.5799 28.8444 23.6128 28.7345 23.6459C28.5627 23.6959 28.3907 23.7447 28.2177 23.7906C27.5659 23.9665 27.0802 24.1321 26.7173 24.7285C26.6353 24.873 26.5573 25.0187 26.4818 25.1668C26.3605 25.4012 26.2223 25.6245 26.0862 25.8506C25.9306 26.1167 25.7757 26.3832 25.6213 26.65C24.8827 27.9114 24.0546 28.8577 22.8837 29.7314C22.5968 29.9476 22.3145 30.1696 22.0313 30.3907C21.6286 30.7044 21.2253 31.0173 20.8204 31.3282C20.18 31.82 19.5434 32.3165 18.9063 32.8126C18.1886 33.3715 17.4705 33.9297 16.749 34.4837C16.1901 34.9137 15.6346 35.3481 15.0782 35.7813C14.361 36.3398 13.6435 36.8977 12.9224 37.4513C12.6597 37.6534 12.398 37.8569 12.1365 38.0605C11.955 38.2018 11.7734 38.3429 11.5919 38.484C11.3813 38.6476 11.1713 38.812 10.962 38.9771C10.7223 39.1657 10.4792 39.3493 10.2345 39.5313C10.1381 39.6066 10.1381 39.6066 10.0398 39.6833C9.48945 40.0712 8.93858 40.1047 8.28133 40.0001C7.78272 39.8214 7.42995 39.5355 7.17964 39.0678C6.96357 38.5708 6.88413 38.1088 7.03133 37.5782C7.40819 36.6965 8.18384 36.1719 8.90755 35.5872C9.2254 35.3193 9.52623 35.0348 9.8288 34.7499C10.1642 34.4358 10.5128 34.1446 10.8717 33.8575C11.1373 33.6357 11.3888 33.4013 11.6407 33.1641C12.0228 32.8043 12.4147 32.4668 12.8248 32.1388C13.0904 31.9169 13.3419 31.6826 13.5938 31.4454C13.9109 31.1468 14.23 30.8583 14.5704 30.586C15.0154 30.2297 15.4277 29.8425 15.8433 29.4529C16.2082 29.1109 16.5858 28.7851 16.9666 28.4611C17.0598 28.3817 17.153 28.3022 17.2462 28.2227C17.2933 28.1825 17.3405 28.1423 17.3891 28.1009C17.7374 27.8024 18.0759 27.4949 18.4117 27.1825C18.6614 26.9518 18.9189 26.7354 19.1846 26.5235C20.283 25.6293 20.9467 24.7385 21.3981 23.4022C21.4845 23.2032 21.4845 23.2032 21.7188 23.047C22.0158 23.0146 22.1961 23.0059 22.4561 23.1593C22.6454 23.4696 22.6476 23.7166 22.5782 24.0626C22.0186 25.6459 21.0361 26.7478 19.7657 27.8126C19.5896 27.9619 19.4139 28.1118 19.2384 28.2618C19.1912 28.302 19.144 28.3423 19.0954 28.3837C18.7872 28.6478 18.4859 28.9181 18.1886 29.1944C17.9053 29.4576 17.6163 29.7094 17.3145 29.9513C16.9208 30.2678 16.5544 30.6074 16.1869 30.9534C15.9164 31.2068 15.6413 31.4481 15.3516 31.6798C14.9066 32.0361 14.4944 32.4233 14.0788 32.8129C13.7138 33.1549 13.3362 33.4807 12.9554 33.8047C12.8622 33.8841 12.769 33.9636 12.6759 34.0431C12.6287 34.0833 12.5815 34.1235 12.5329 34.1649C12.2247 34.4291 11.9234 34.6994 11.6261 34.9757C11.3428 35.2388 11.0538 35.4906 10.752 35.7325C10.4046 36.0121 10.0764 36.3069 9.75105 36.6114C9.70451 36.655 9.65797 36.6985 9.61002 36.7434C9.52042 36.8273 9.43083 36.9113 9.34124 36.9952C9.17825 37.1473 9.01388 37.2977 8.84773 37.4464C8.80141 37.488 8.75508 37.5296 8.70735 37.5724C8.59383 37.6563 8.59383 37.6563 8.43758 37.6563C8.29954 38.036 8.29954 38.036 8.33992 38.4278C8.42363 38.6046 8.42363 38.6046 8.59383 38.672C8.9653 38.7274 9.1706 38.6773 9.46602 38.4602C9.58325 38.3661 9.69937 38.2705 9.81453 38.1739C9.94004 38.0724 10.0656 37.9708 10.1911 37.8693C10.2521 37.8193 10.313 37.7693 10.3758 37.7178C10.5986 37.5361 10.826 37.3616 11.0548 37.1876C11.4597 36.8767 11.8629 36.5637 12.2657 36.2501C12.6685 35.9364 13.0717 35.6234 13.4766 35.3126C14.117 34.8208 14.7537 34.3243 15.3907 33.8282C16.1084 33.2693 16.8265 32.7111 17.548 32.1571C18.1069 31.7271 18.6625 31.2927 19.2188 30.8595C20.5629 29.8128 20.5629 29.8128 21.1329 29.3751C21.212 29.3142 21.2912 29.2532 21.3728 29.1905C21.5189 29.0779 21.6653 28.9657 21.8118 28.8537C21.9992 28.7105 22.1862 28.5667 22.3731 28.4229C22.4317 28.3784 22.4902 28.3338 22.5506 28.2879C23.7068 27.3958 24.3386 26.1969 25.055 24.9513C26.1002 23.1369 26.1002 23.1369 26.8751 22.8907C26.9742 22.856 27.0733 22.8211 27.1723 22.786C27.993 22.5001 27.993 22.5001 28.2813 22.5001C28.2281 22.3948 28.2281 22.3948 28.1738 22.2874C28.0424 22.0275 27.9115 21.7675 27.7806 21.5073C27.7239 21.3946 27.6671 21.282 27.6101 21.1695C27.5284 21.0079 27.4471 20.8461 27.3658 20.6843C27.3274 20.6086 27.3274 20.6086 27.2881 20.5314C27.1095 20.1741 27.1095 20.1741 27.1095 20.0001C25.4466 20.0388 25.4466 20.0388 23.7501 20.0782C23.5954 20.5681 23.4407 21.0579 23.2813 21.5626C23.047 21.797 23.047 21.797 22.7393 21.8311C22.5134 21.8207 22.426 21.7994 22.2266 21.6798C22.0345 21.3596 22.0766 21.0243 22.1473 20.6691C22.6349 18.7711 23.3463 17.2294 24.8438 15.9376C24.7726 15.851 24.7009 15.7648 24.629 15.6788C24.5891 15.6308 24.5492 15.5827 24.5081 15.5332C24.3708 15.3861 24.2267 15.2723 24.0626 15.1563C24.0318 15.1921 24.0009 15.2278 23.9692 15.2646C23.8193 15.4348 23.6651 15.6005 23.5108 15.7667C23.4384 15.8509 23.4384 15.8509 23.3645 15.9368C22.1854 17.1817 20.2496 17.59 18.6622 18.0372C18.3669 18.1217 18.0718 18.2066 17.7768 18.292C17.5955 18.3444 17.414 18.3961 17.2324 18.4472C15.4907 18.9447 14.3703 19.6753 13.238 21.0978C13.0149 21.3669 12.7788 21.6208 12.5391 21.8751C12.2405 22.1922 11.9521 22.5113 11.6798 22.8516C11.367 23.2426 11.0303 23.6053 10.6873 23.9695C10.434 24.24 10.1927 24.5152 9.96101 24.8048C9.60473 25.2498 9.21747 25.6621 8.8279 26.0777C8.48592 26.4426 8.16012 26.8202 7.83608 27.201C7.75665 27.2942 7.67721 27.3874 7.59773 27.4806C7.5374 27.5513 7.5374 27.5513 7.47585 27.6235C7.17726 27.9719 6.86944 28.3104 6.55712 28.6466C6.33074 28.8919 6.11699 29.144 5.90828 29.4044C5.63233 29.7476 5.34078 30.0703 5.03914 30.3907C4.73445 30.7144 4.4398 31.0408 4.16023 31.3868C3.0115 32.808 3.0115 32.808 2.1534 33.0421C1.52735 33.0531 0.943133 32.9278 0.468827 32.5001C0.014543 31.9973 -0.0755308 31.4945 -0.0441731 30.828C0.0251684 30.3876 0.196371 30.1122 0.468827 29.7657C0.559918 29.6462 0.559918 29.6462 0.652848 29.5243C0.833435 29.29 1.01818 29.0592 1.20339 28.8285C1.4301 28.5442 1.65227 28.2563 1.87508 27.9688C2.22083 27.5238 2.56719 27.0792 2.91512 26.6358C2.95122 26.5898 2.98732 26.5437 3.02452 26.4962C3.27194 26.1813 3.27194 26.1813 3.35945 26.0938C3.90933 26.0488 3.90933 26.0488 4.17977 26.211C4.34224 26.4818 4.35155 26.7269 4.29695 27.0313C4.18517 27.2443 4.0366 27.414 3.87703 27.5929C3.78986 27.6959 3.70279 27.7991 3.6158 27.9023C3.57219 27.9531 3.52859 28.004 3.48366 28.0563C3.30772 28.2644 3.1434 28.4794 2.97859 28.6964C2.60465 29.1854 2.22656 29.6712 1.84734 30.1561C1.7801 30.2423 1.7801 30.2423 1.7115 30.3303C1.67147 30.3815 1.63144 30.4327 1.5902 30.4855C1.34082 30.8147 1.29123 30.9922 1.3282 31.4063C1.43922 31.5729 1.52368 31.6233 1.70418 31.7042C1.95238 31.7255 2.1187 31.6654 2.34383 31.5626C2.36588 31.5182 2.38794 31.4738 2.41066 31.428C2.53439 31.1818 2.71768 30.9991 2.90535 30.8009C2.98393 30.7165 3.06246 30.632 3.14095 30.5476C3.19782 30.4866 3.19782 30.4866 3.25585 30.4244C3.55256 30.1043 3.83502 29.7715 4.11781 29.4392C4.5354 28.949 4.95782 28.466 5.39616 27.9942C5.62254 27.7489 5.83629 27.4968 6.045 27.2364C6.40521 26.7887 6.7952 26.3727 7.18788 25.9538C7.52986 25.5888 7.85566 25.2112 8.1797 24.8304C8.25913 24.7372 8.33857 24.644 8.41805 24.5509C8.47838 24.4801 8.47838 24.4801 8.53993 24.4079C8.83852 24.0595 9.14634 23.721 9.45866 23.3848C9.68504 23.1395 9.89879 22.8875 10.1075 22.627C10.4242 22.2332 10.7639 21.8665 11.1102 21.4989C11.3588 21.2335 11.5951 20.9639 11.8214 20.6788C12.3227 20.0543 12.8802 19.4805 13.4376 18.9063C13.5003 18.8406 13.5631 18.7748 13.6277 18.7071C14.6999 17.6642 16.2319 17.3106 17.6243 16.9143C17.8845 16.8399 18.1441 16.7638 18.4039 16.6879C18.9094 16.5402 19.4156 16.3952 19.922 16.2501C19.9477 15.1415 19.9735 14.0329 20.0001 12.8907C19.768 12.8134 19.768 12.8134 19.5313 12.7345C19.3666 12.6582 19.2033 12.5789 19.0412 12.497C18.906 12.4291 18.906 12.4291 18.7681 12.3597C18.6742 12.3121 18.5803 12.2645 18.4864 12.2169C18.3907 12.1686 18.295 12.1204 18.1992 12.0722C17.966 11.9547 17.733 11.8369 17.5001 11.7188C17.4913 11.7616 17.4826 11.8044 17.4736 11.8484C17.3823 12.2792 17.2674 12.6941 17.1241 13.1104C17.1057 13.168 17.0873 13.2255 17.0684 13.2848C17.0492 13.3406 17.03 13.3963 17.0103 13.4538C16.9937 13.5033 16.9771 13.5528 16.96 13.6038C16.7662 13.9376 16.3978 14.1241 16.074 14.3165C15.9951 14.3635 15.9162 14.4106 15.8349 14.4591C15.7512 14.5087 15.6674 14.5583 15.5811 14.6095C15.4945 14.6613 15.4079 14.7131 15.3186 14.7665C14.9102 15.0107 14.5009 15.2528 14.0882 15.4896C12.8096 16.2275 11.9606 17.0751 11.0782 18.2513C10.8462 18.5587 10.6084 18.8617 10.3712 19.1651C10.064 19.5597 9.75776 19.955 9.4532 20.3516C8.91417 21.0536 8.36949 21.7512 7.8257 22.4495C7.68458 22.6307 7.5435 22.812 7.40242 22.9932C7.35698 23.0516 7.31153 23.11 7.26471 23.1701C7.02343 23.4802 6.78332 23.7912 6.54488 24.1035C6.39539 24.2988 6.24449 24.4931 6.09383 24.6876C6.04911 24.7473 6.0044 24.807 5.95833 24.8686C5.78208 25.0934 5.65677 25.2228 5.38582 25.3223C5.08914 25.3097 4.8976 25.2101 4.68758 25.0001C4.62363 24.6611 4.62865 24.4749 4.80599 24.1746C4.95735 23.973 5.11313 23.7762 5.27332 23.5817C5.45006 23.3647 5.62049 23.143 5.79167 22.9216C5.93332 22.7385 6.0756 22.5559 6.21803 22.3734C6.43822 22.091 6.65706 21.8076 6.87508 21.5235C7.23312 21.0571 7.59415 20.5931 7.9554 20.1292C8.22136 19.7875 8.4864 19.4451 8.75008 19.1016C9.15259 18.5775 9.55781 18.0555 9.96437 17.5346C10.1334 17.3179 10.3013 17.1006 10.4679 16.8821C11.5263 15.5004 12.8004 14.6964 14.2853 13.8396C14.5234 13.7021 14.7607 13.5636 14.9963 13.4218C15.2345 13.2813 15.2345 13.2813 15.4092 13.1985C15.8724 12.9534 15.9693 12.4478 16.1158 11.9791C16.151 11.8631 16.186 11.7471 16.2208 11.6309C16.2734 11.4573 16.3266 11.284 16.3816 11.1111C16.4156 11.004 16.4483 10.8964 16.4794 10.7884C16.5553 10.5483 16.6265 10.4035 16.8148 10.2339C17.1492 10.1141 17.4063 10.1637 17.7326 10.298C17.9029 10.3794 18.0694 10.4662 18.2359 10.5552C18.3608 10.6198 18.4858 10.6843 18.6108 10.7488C18.8059 10.8508 19.0008 10.9531 19.1955 11.056C19.3846 11.1554 19.5743 11.2533 19.7642 11.3511C19.8224 11.3824 19.8806 11.4137 19.9405 11.446C20.2398 11.6088 20.2398 11.6088 20.5676 11.5986C20.7194 11.4708 20.8611 11.3414 20.9989 11.1985C21.0804 11.1152 21.0804 11.1152 21.1636 11.0302C21.2475 10.9433 21.2475 10.9433 21.3331 10.8546C21.4443 10.7394 21.5559 10.6245 21.6679 10.51C21.717 10.4591 21.7662 10.4081 21.8168 10.3556C22.0606 10.1391 22.2923 10.147 22.6035 10.1487C22.6838 10.149 22.7642 10.1492 22.8469 10.1495C22.9306 10.1501 23.0144 10.1508 23.1007 10.1514C23.1853 10.1518 23.27 10.1522 23.3572 10.1525C23.5663 10.1534 23.7754 10.1547 23.9845 10.1563C24.0078 10.1079 24.0312 10.0595 24.0553 10.0097C24.1487 9.82826 24.2563 9.6904 24.3897 9.53621C24.4542 9.46023 24.4542 9.46023 24.52 9.38271C24.6876 9.21883 24.6876 9.21883 24.8288 9.14082C24.9924 9.04845 25.111 8.97049 25.2345 8.82821C25.2858 8.54933 25.2507 8.28753 25.2149 8.00789C25.1987 7.86235 25.1836 7.71667 25.1698 7.57088C25.1578 7.47458 25.1578 7.47458 25.1456 7.37633C25.1675 6.9914 25.4471 6.7195 25.7031 6.45194C25.7659 6.38617 25.8286 6.3204 25.8933 6.25265C26.1859 5.95088 26.4792 5.64991 26.774 5.35033C26.9277 5.19392 27.0799 5.03632 27.231 4.87738C28.2389 3.81796 29.4503 2.57225 30.9768 2.38913C31.2751 2.43932 31.3861 2.57382 31.5626 2.81258C31.6114 3.04696 31.6114 3.04696 31.5626 3.28133C31.3011 3.60268 31.0346 3.74942 30.6645 3.91016C29.6835 4.33968 28.9465 4.95828 28.1898 5.70662C27.9874 5.90429 27.7789 6.09352 27.5694 6.2835C26.7881 7.02177 26.7881 7.02177 26.488 8.02159C26.4841 8.36694 26.5125 8.70107 26.5506 9.04395C26.5859 9.42164 26.5859 9.42164 26.3821 9.69759C26.2004 9.82404 26.0212 9.94694 25.8302 10.0587C25.1759 10.4865 24.7705 11.1117 24.6095 11.8751C24.5228 12.6782 24.6024 13.3432 25.0001 14.0626C25.0292 14.1163 25.0583 14.1699 25.0883 14.2252C25.3379 14.6245 25.7017 14.8331 26.0938 15.0782C26.5365 15.4102 26.5365 15.4102 26.6016 15.752C26.4989 16.4454 25.5998 17.0548 25.1101 17.5158C24.7216 17.8938 24.4733 18.2353 24.297 18.7501C26.1974 18.9259 26.1974 18.9259 27.9178 18.3184C28.4863 17.7476 28.6008 17.1832 28.6085 16.3917C28.6003 16.2245 28.5917 16.0574 28.5825 15.8903C28.573 15.5702 28.5711 15.5 28.7666 15.2317C28.8385 15.1811 28.9104 15.1304 28.9845 15.0782C29.0424 15.0343 29.1003 14.9904 29.1599 14.9451C29.2164 14.9053 29.2729 14.8654 29.3311 14.8243C29.9447 14.3536 30.2427 13.7416 30.4444 13.0079C30.5469 12.1884 30.3992 11.3859 29.9067 10.7108C29.583 10.3346 29.2109 10.0104 28.794 9.74129C28.5938 9.60946 28.5938 9.60946 28.4376 9.37508C28.4147 9.05409 28.4574 8.90498 28.653 8.64734C28.8482 8.43351 29.05 8.22897 29.2561 8.02559C29.3318 7.94956 29.4074 7.87346 29.483 7.79729C29.6413 7.63828 29.8005 7.48015 29.9602 7.32258C30.1644 7.1211 30.3663 6.91759 30.5678 6.71337C30.7235 6.55595 30.8803 6.39967 31.0375 6.2437C31.1487 6.13298 31.2589 6.02131 31.3691 5.90963C31.9353 5.35565 31.9353 5.35565 32.2634 5.29927C32.6476 5.32088 32.8733 5.50304 33.1251 5.78133C33.3977 5.66451 33.5731 5.50853 33.7814 5.29896C33.8823 5.19809 33.8823 5.19809 33.9852 5.09519C34.057 5.02251 34.1289 4.94984 34.203 4.87496C34.2778 4.79983 34.3527 4.72474 34.4276 4.64968C34.6242 4.45249 34.8203 4.25483 35.0163 4.05707C35.2166 3.85518 35.4174 3.65372 35.6181 3.45223C36.0115 3.05716 36.4044 2.66159 36.797 2.26571C36.6715 1.99925 36.5309 1.82681 36.3184 1.62118C36.2618 1.56599 36.2052 1.5108 36.1469 1.45394C36.1036 1.41245 36.0603 1.37096 36.0157 1.32821C35.6831 1.43083 35.3861 1.55887 35.0788 1.72188C34.9478 1.78986 34.9478 1.78986 34.8142 1.85921C34.6324 1.95431 34.4509 2.05013 34.2698 2.14669C33.4217 2.58392 33.4217 2.58392 32.8907 2.50008C32.6905 2.33895 32.6905 2.33895 32.5782 2.10946C32.5733 1.83114 32.5733 1.83114 32.6563 1.56258C32.9393 1.29977 33.2606 1.12176 33.6018 0.946126C33.6547 0.918824 33.7076 0.891521 33.7621 0.86339C33.8737 0.806139 33.9854 0.749163 34.0973 0.692449C34.2663 0.606222 34.434 0.517729 34.6018 0.429159C35.7719 -0.174013 35.7719 -0.174013 36.4063 8.15094e-05ZM37.5792 3.26151C37.5157 3.32536 37.4522 3.3892 37.3868 3.45498C37.3149 3.52693 37.2429 3.59888 37.1688 3.67301C37.0902 3.7524 37.0116 3.8318 36.9331 3.91121C36.8527 3.99182 36.7724 4.07239 36.692 4.15293C36.4803 4.36528 36.269 4.5781 36.0578 4.79101C35.8423 5.00807 35.6264 5.2247 35.4105 5.44137C34.9868 5.86676 34.5636 6.29264 34.1407 6.71883C34.2456 6.9497 34.2456 6.9497 34.419 7.12899C34.5684 7.3108 34.6133 7.48933 34.6346 7.72164C34.602 7.9408 34.5228 8.02652 34.3733 8.1885C34.3232 8.24277 34.2731 8.29703 34.2215 8.35295C33.9741 8.60634 33.7171 8.84785 33.4568 9.08791C33.3438 9.19501 33.2309 9.30228 33.1182 9.40972C32.9432 9.57658 32.7675 9.74231 32.5889 9.9053C31.8815 10.4995 31.8815 10.4995 31.5218 11.3042C31.5629 11.5623 31.6338 11.7849 31.7188 12.0313C31.7515 12.5315 31.7303 13.0227 31.6407 13.5157C32.1903 13.5701 32.5582 13.5527 32.9941 13.1988C33.0481 13.1503 33.1021 13.1018 33.1577 13.0518C33.2175 12.9994 33.2772 12.947 33.3388 12.893C33.537 12.7139 33.7294 12.53 33.921 12.3438C33.9877 12.2798 34.0545 12.2158 34.1233 12.1498C35.5988 10.6983 36.4914 8.93268 37.3927 7.08992C37.4277 7.0185 37.4628 6.94707 37.4989 6.87348C37.734 6.39376 37.9644 5.91205 38.1916 5.42855C38.2218 5.36502 38.2519 5.30148 38.283 5.23603C38.3669 5.05807 38.449 4.87941 38.5305 4.70032C38.5554 4.64791 38.5803 4.59549 38.6059 4.54149C38.734 4.25917 38.734 4.25917 38.6959 3.961C38.5563 3.77937 38.4048 3.6186 38.2423 3.45711C38.1802 3.39467 38.1182 3.33223 38.0543 3.2679C37.8377 3.07879 37.7955 3.07139 37.5792 3.26151ZM32.0543 7.06872C31.9655 7.15758 31.8771 7.24688 31.789 7.33651C31.7424 7.38333 31.6958 7.43015 31.6478 7.47838C31.4986 7.62848 31.3499 7.77912 31.2012 7.92977C31.1004 8.03143 30.9995 8.13305 30.8985 8.23464C30.6507 8.48417 30.4034 8.73419 30.1563 8.98446C30.2743 9.23296 30.3969 9.39842 30.5958 9.58992C30.6451 9.63786 30.6945 9.6858 30.7453 9.73519C30.783 9.77104 30.8206 9.80689 30.8595 9.84383C31.1798 9.71715 31.3932 9.48627 31.6297 9.24508C31.6941 9.18038 31.6941 9.18038 31.7597 9.11438C31.8962 8.97703 32.0321 8.83915 32.168 8.70125C32.2607 8.60783 32.3534 8.51445 32.4461 8.4211C32.6728 8.19263 32.8991 7.96367 33.1251 7.73446C33.0086 7.49023 32.8883 7.32024 32.6954 7.12899C32.6479 7.08105 32.6003 7.03311 32.5513 6.98372C32.3205 6.78986 32.2748 6.8667 32.0543 7.06872ZM21.5183 12.2416C20.8863 13.1735 21.1606 14.6362 21.2501 15.7032C21.9069 15.5453 22.2734 15.2296 22.7442 14.7559C22.8125 14.6921 22.8808 14.6282 22.9511 14.5625C23.2957 14.2388 23.2957 14.2388 23.4633 13.814C23.4449 13.644 23.4449 13.644 23.4016 13.4724C23.3514 13.2447 23.3504 13.0356 23.3518 12.8025C23.3521 12.7202 23.3523 12.6379 23.3526 12.553C23.3532 12.4695 23.3539 12.386 23.3546 12.2999C23.3549 12.2136 23.3553 12.1274 23.3556 12.0385C23.3566 11.8278 23.3578 11.6171 23.3595 11.4063C22.5262 11.3102 22.0602 11.6281 21.5183 12.2416Z" fill="#EB5724"/>
<path d="M28.5936 10.9374C29.1002 11.374 29.3374 11.782 29.3993 12.4511C29.3457 13.0731 29.1452 13.567 28.6718 13.9843C28.1824 14.3619 27.6279 14.3706 27.0311 14.2968C26.5002 14.1377 26.1193 13.792 25.8349 13.3202C25.6115 12.8389 25.6154 12.272 25.7546 11.7653C25.9546 11.3143 26.2896 10.9872 26.7348 10.7784C27.4029 10.5337 27.9767 10.5774 28.5936 10.9374ZM27.0311 12.1093C26.9202 12.3312 26.9284 12.4886 26.953 12.7343C27.0702 12.9296 27.0702 12.9296 27.2655 13.0468C27.5274 13.085 27.6768 13.0748 27.9149 12.9589C28.1 12.7532 28.1249 12.619 28.1249 12.3437C27.9837 12.0993 27.8839 11.9824 27.622 11.8749C27.3619 11.8749 27.237 11.9549 27.0311 12.1093Z" fill="#EB5724"/>
</g>
<defs>
<clipPath id="clip0_260_5853">
<rect width="40" height="40" fill="white"/>
</clipPath>
</defs>
</svg>
