<svg width="60" height="60" viewBox="0 0 50 50" fill="none" xmlns="http://www.w3.org/2000/svg">
  <!-- SBR Loader Emblem -->
  <ellipse cx="25" cy="20" rx="22" ry="18" stroke="#EB5724" stroke-width="3.2" fill="none"/>
  <line x1="25" y1="6" x2="25" y2="34" stroke="#EB5724" stroke-width="3.2" stroke-linecap="round"/>
  <path d="M25 6 C15 8 14 15 19 20 C12 25 12 32 25 34" stroke="#EB5724" stroke-width="3" stroke-linecap="round" fill="none"/>
  <path d="M25 6 C35 8 36 15 31 20 C38 25 38 32 25 34" stroke="#EB5724" stroke-width="3" stroke-linecap="round" fill="none"/>
  <line x1="8" y1="29" x2="42" y2="29" stroke="#EB5724" stroke-width="3" stroke-linecap="round"/>
  <g fill="#EB5724">
    <path d="M5 42 C5 39.5 7 38 10 38 C13.5 38 15 39.5 15 41 C15 44 6 43 6 47 C6 49.5 8.5 50 12 50 C15 50 16 48.5 16 48 L14 47 C13.5 48 12.5 48.5 11.5 48.5 C9.5 48.5 8.2 47.5 8.2 46.2 C8.2 43.5 17 44.5 17 39.8 C17 36.5 14.5 35 10.5 35 C6.5 35 4.5 37 4 39.5 Z"/>
    <path d="M20 36 H27 C30 36 31.5 37.5 31.5 39.5 C31.5 41 30.5 42 29 42.5 C31 43 32.5 44.5 32.5 46.7 C32.5 49.3 30.2 50 26.8 50 H20 Z M22.5 41.5 H25.7 C27.5 41.5 28.5 40.7 28.5 39.5 C28.5 38.3 27.5 37.7 25.7 37.7 H22.5 Z M22.5 48.2 H26.3 C28.3 48.2 29.5 47.3 29.5 45.8 C29.5 44.2 28.3 43.2 26.3 43.2 H22.5 Z"/>
    <path d="M35 36 H42 C45.5 36 47.5 37.7 47.5 40.3 C47.5 42.3 46.3 43.7 44.5 44.5 L48 50 H45.3 L42 44.5 H37.5 V50 H35 Z M37.5 42.5 H41.2 C43.2 42.5 44.5 41.5 44.5 39.8 C44.5 38.2 43.2 37.5 41.2 37.5 H37.5 Z"/>
  </g>
</svg>
